<svg xmlns="http://www.w3.org/2000/svg" viewBox="0 0 24 24" fill="none" stroke="url(#gradient)" stroke-width="2" stroke-linecap="round" stroke-linejoin="round">
  <defs>
    <linearGradient id="gradient" x1="0%" y1="0%" x2="100%" y2="100%">
      <stop offset="0%" style="stop-color:#6366f1;stop-opacity:1" />
      <stop offset="100%" style="stop-color:#a855f7;stop-opacity:1" />
    </linearGradient>
  </defs>
  <path d="M12 2a4 4 0 0 0-4 4 4 4 0 0 0 4 4 4 4 0 0 0 4-4 4 4 0 0 0-4-4z"></path>
  <path d="M16 8v1a2 2 0 0 1-2 2H6l-3.5-5"></path>
  <path d="M12 10v4"></path>
  <path d="M12 18v4"></path>
  <path d="M8 14v.01"></path>
  <path d="M16 14v.01"></path>
  <circle cx="12" cy="12" r="10" stroke="url(#gradient)" stroke-opacity="0.2" fill="none" stroke-width="1"/>
</svg>
